<?xml version="1.0" standalone="no"?>
<!DOCTYPE svg PUBLIC "-//W3C//DTD SVG 20010904//EN"
 "http://www.w3.org/TR/2001/REC-SVG-20010904/DTD/svg10.dtd">
<svg version="1.0" xmlns="http://www.w3.org/2000/svg"
 width="1024.000000pt" height="1024.000000pt" viewBox="0 0 1024.000000 1024.000000"
 preserveAspectRatio="xMidYMid meet">

<g transform="translate(0.000000,1024.000000) scale(0.100000,-0.100000)"
fill="#000000" stroke="none">
<path d="M0 5120 l0 -5120 5120 0 5120 0 0 5120 0 5120 -5120 0 -5120 0 0
-5120z m5638 3623 c2 -12 -8 -44 -23 -72 -37 -73 -83 -218 -90 -282 l-6 -54
63 -40 c35 -22 113 -89 174 -150 113 -113 174 -197 284 -390 92 -163 279 -419
535 -734 102 -125 113 -155 90 -244 -39 -155 -127 -272 -252 -334 -63 -31 -87
-37 -157 -41 -52 -3 -91 0 -104 7 -12 6 -44 44 -71 84 -57 84 -163 189 -241
239 -94 60 -157 76 -320 82 -244 8 -398 63 -521 185 -109 109 -159 233 -162
407 -1 52 -4 94 -7 94 -10 0 -32 -43 -52 -99 -29 -84 -34 -200 -14 -301 40
-198 147 -313 566 -609 253 -179 426 -309 517 -390 345 -304 534 -751 494
-1160 -19 -186 -82 -393 -133 -436 l-30 -25 -1180 0 -1180 0 -30 30 -30 30 9
103 c11 140 8 373 -6 482 -7 50 -48 268 -91 485 -115 574 -140 767 -140 1063
0 198 12 321 46 476 78 348 242 643 490 880 265 253 618 408 940 412 l98 2 65
65 c114 113 211 176 350 228 98 36 115 38 119 7z m636 -4462 c9 -8 34 -44 56
-80 21 -36 75 -108 120 -160 113 -130 121 -152 118 -315 l-3 -131 -1547 -3
-1547 -2 -12 22 c-8 15 -10 56 -6 131 7 137 26 179 133 297 47 53 91 113 114
160 23 45 48 81 62 88 17 8 356 10 1259 9 1050 -2 1239 -4 1253 -16z"/>
<path d="M4594 8076 c-404 -199 -689 -603 -749 -1063 -36 -278 -6 -624 116
-1308 34 -187 64 -359 66 -383 9 -74 21 -55 28 45 11 145 -1 419 -29 673 -55
489 -57 820 -6 1081 76 396 300 742 614 950 49 32 85 59 80 59 -5 0 -59 -24
-120 -54z"/>
<path d="M5560 7715 c0 -4 16 -38 37 -77 48 -93 78 -113 194 -137 52 -10 95
-18 96 -17 2 2 -4 27 -13 57 -22 75 -80 130 -160 151 -72 20 -154 32 -154 23z"/>
<path d="M4625 6236 c-16 -7 -39 -23 -50 -36 -20 -22 -20 -38 -23 -674 -2
-639 -2 -652 18 -684 26 -42 81 -66 137 -59 63 7 1004 586 1051 647 54 70 40
152 -38 204 -19 13 -165 104 -325 201 -159 98 -357 219 -440 270 -230 143
-270 158 -330 131z"/>
</g>
</svg>
